<?xml version="1.0" encoding="utf-8"?>
<!-- Generator: Adobe Illustrator 21.0.0, SVG Export Plug-In . SVG Version: 6.00 Build 0)  -->
<svg version="1.1" id="Layer_1" xmlns="http://www.w3.org/2000/svg" xmlns:xlink="http://www.w3.org/1999/xlink" x="0px" y="0px"
	 viewBox="0 0 107 76" style="enable-background:new 0 0 107 76;" xml:space="preserve">
<style type="text/css">
	.st0{fill:#FFFFFF;}
</style>
<g>
	<path class="st0" d="M90.8,12.9c-9,0-16.2,7.3-16.2,16.2c0,2.5,0.6,4.9,1.6,7.1L68.3,41c-3.7-5.1-9.7-8.5-16.5-8.5
		c-5.3,0-10.1,2-13.7,5.3l-6.9-5.9C33,29.2,34,26,34,22.5c0-9.4-7.6-17-17-17s-17,7.6-17,17s7.6,17,17,17c4.2,0,8.1-1.6,11.1-4.2
		l6.9,5.9c-2.3,3.3-3.6,7.3-3.6,11.6c0,11.2,9.1,20.4,20.4,20.4s20.4-9.1,20.4-20.4c0-3.3-0.8-6.5-2.2-9.2l7.8-4.8
		c3,4,7.7,6.5,13,6.5c9,0,16.2-7.3,16.2-16.2S99.7,12.9,90.8,12.9z M17,34.9c-6.8,0-12.4-5.6-12.4-12.4S10.2,10.2,17,10.2
		s12.4,5.6,12.4,12.4S23.8,34.9,17,34.9z M51.8,68.6c-8.7,0-15.7-7.1-15.7-15.7c0-8.7,7.1-15.7,15.7-15.7c8.7,0,15.7,7.1,15.7,15.7
		C67.5,61.6,60.4,68.6,51.8,68.6z M90.8,42.3c-7.3,0-13.1-5.9-13.1-13.1S83.5,16,90.8,16c7.3,0,13.1,5.9,13.1,13.1
		S98,42.3,90.8,42.3z"/>
	<circle class="st0" cx="14.4" cy="50.5" r="3.4"/>
	<circle class="st0" cx="60.2" cy="24" r="6.2"/>
	<circle class="st0" cx="47.6" cy="17.8" r="3.4"/>
	<circle class="st0" cx="68.3" cy="6.2" r="3.4"/>
	<circle class="st0" cx="51.8" cy="47.1" r="6.2"/>
	<path class="st0" d="M51.8,55.8c-4.3,0-8.2,2.1-10.6,5.3c2.5,3.1,6.3,5.2,10.6,5.2c4.3,0,8.1-2,10.6-5.2
		C59.9,57.9,56.1,55.8,51.8,55.8z"/>
	<circle class="st0" cx="17" cy="17.8" r="5"/>
	<path class="st0" d="M17,24.9c-3.5,0-6.6,1.7-8.6,4.3c2,2.6,5.1,4.2,8.6,4.2c3.5,0,6.6-1.7,8.6-4.2C23.7,26.6,20.5,24.9,17,24.9z"
		/>
	<circle class="st0" cx="90.8" cy="24.5" r="5"/>
	<path class="st0" d="M90.8,31.6c-3.5,0-6.6,1.7-8.6,4.3c2,2.6,5.1,4.2,8.6,4.2c3.5,0,6.6-1.7,8.6-4.2
		C97.4,33.3,94.3,31.6,90.8,31.6z"/>
</g>
</svg>
