<?xml version="1.0" encoding="utf-8"?>
<!-- Generator: Adobe Illustrator 21.0.0, SVG Export Plug-In . SVG Version: 6.00 Build 0)  -->
<svg version="1.1" id="Layer_1" xmlns="http://www.w3.org/2000/svg" xmlns:xlink="http://www.w3.org/1999/xlink" x="0px" y="0px"
	 viewBox="0 0 107 76" style="enable-background:new 0 0 107 76;" xml:space="preserve">
<style type="text/css">
	.st0{fill:#FFFFFF;}
</style>
<g>
	<path class="st0" d="M5.5,24.5H0V30v5.5V41v5.5V52h5.5v-5.5V41H11h5.5v-5.5V30v-5.5H11H5.5z M11,35.5H5.5V30H11V35.5z"/>
	<polygon class="st0" points="27.5,24.5 22,24.5 22,30 22,35.5 22,41 27.5,41 33.1,41 33.1,46.5 27.5,46.5 22,46.5 22,52 27.5,52 
		33.1,52 38.6,52 38.6,46.5 38.6,41 38.6,35.5 33.1,35.5 27.5,35.5 27.5,30 33.1,30 38.6,30 38.6,24.5 33.1,24.5 	"/>
	<rect x="11" y="46.5" class="st0" width="5.5" height="5.5"/>
	<path class="st0" d="M49.6,35.5h-5.5V41v5.5V52h5.5h5.5h5.5v-5.5V41v-5.5h-5.5H49.6z M55.1,46.5h-5.5V41h5.5V46.5z"/>
	<polygon class="st0" points="49.6,24.5 44.1,24.5 44.1,30 49.6,30 55.1,30 60.6,30 60.6,24.5 55.1,24.5 	"/>
	<polygon class="st0" points="71.6,24.5 66.1,24.5 66.1,30 66.1,35.5 66.1,41 66.1,46.5 66.1,52 71.6,52 77.1,52 82.6,52 82.6,46.5 
		77.1,46.5 71.6,46.5 71.6,41 71.6,35.5 71.6,30 77.1,30 82.6,30 82.6,24.5 77.1,24.5 	"/>
	<path class="st0" d="M99.6,34.6c-1.8,0-5.1,0.4-6.3,3.3c0-10.9,2.9-13.5,5.8-13.5c1.8,0,2.3,0.6,2.1,0.6c-0.8,0.1-1.3,0.6-1.8,1.2
		c-0.9,1.4-0.5,3.3,0.9,4.1c1.4,0.9,3.3,0.5,4.1-1c0.6-1,0.6-2.3,0.1-3.1c-0.5-0.8-2.2-2.6-5.5-2.6c-6.3,0-12.1,5.9-12.1,15.7
		c0,7.9,3.4,13,10.1,13c5.5,0,9.9-2.9,9.9-9C107,39,105.2,34.6,99.6,34.6z M97.1,51.7c-3,0-3.7-3.7-3.9-12.3
		c0.6-2.5,2.9-3.1,4.2-3.1c2.2,0,3.7,2.7,3.7,7.9C101.2,50.3,100.1,51.7,97.1,51.7z"/>
</g>
</svg>
