<?xml version="1.0" encoding="utf-8"?>
<!-- Generator: Adobe Illustrator 21.0.0, SVG Export Plug-In . SVG Version: 6.00 Build 0)  -->
<svg version="1.1" id="Layer_1" xmlns="http://www.w3.org/2000/svg" xmlns:xlink="http://www.w3.org/1999/xlink" x="0px" y="0px"
	 viewBox="0 0 107 76" style="enable-background:new 0 0 107 76;" xml:space="preserve">
<style type="text/css">
	.st0{fill:#FFFFFF;}
</style>
<g>
	<path class="st0" d="M102.1,0H8.1C6.5,0,5.2,1.3,5.2,2.8v14.4H2.5c-0.3,0-0.5,0.2-0.5,0.5v5.4c0,0.3,0.2,0.5,0.5,0.5h2.7v1.7H2.5
		c-0.3,0-0.5,0.2-0.5,0.5v5.4c0,0.3,0.2,0.5,0.5,0.5h2.7v2.8H4.5c-0.8,0-1.5,0.7-1.5,1.5v19c0,0.8,0.7,1.5,1.5,1.5h0.7v16.5
		c0,1.6,1.3,2.8,2.9,2.8h94.1c1.6,0,2.8-1.3,2.8-2.8V2.8C105,1.3,103.7,0,102.1,0z M99.3,70.3H10.9V56.6h3.7c0.8,0,1.5-0.7,1.5-1.5
		v-19c0-0.8-0.7-1.5-1.5-1.5h-3.7v-2.8h3.7c0.3,0,0.5-0.2,0.5-0.5v-5.4c0-0.3-0.2-0.5-0.5-0.5h-3.7v-1.7h3.7c0.3,0,0.5-0.2,0.5-0.5
		v-5.4c0-0.3-0.2-0.5-0.5-0.5h-3.7V5.7h88.4V70.3z"/>
	<path class="st0" d="M67.1,49.1V26.9c0-0.5-0.4-0.9-0.9-0.9H44c-0.5,0-0.9,0.4-0.9,0.9v22.2c0,0.5,0.4,0.9,0.9,0.9h22.2
		C66.7,50,67.1,49.6,67.1,49.1z"/>
	<path class="st0" d="M70.9,26.9v15.4c0,0.5,0.4,0.9,0.9,0.9h15.4c0.5,0,0.9-0.4,0.9-0.9V26.9c0-0.5-0.4-0.9-0.9-0.9H71.8
		C71.3,26,70.9,26.4,70.9,26.9z"/>
	<path class="st0" d="M25.6,35V41c0,0.2,0.1,0.3,0.3,0.3h5.9c0.2,0,0.3-0.1,0.3-0.3V35c0-0.2-0.1-0.3-0.3-0.3h-5.9
		C25.7,34.8,25.6,34.9,25.6,35z"/>
	<path class="st0" d="M25.6,48.6c0,0.2,0.1,0.3,0.3,0.3h5.9c0.2,0,0.3-0.1,0.3-0.3v-5.9c0-0.2-0.1-0.3-0.3-0.3h-5.9
		c-0.2,0-0.3,0.1-0.3,0.3V48.6z"/>
	<path class="st0" d="M32.4,57.3h-7.2c-0.2,0-0.3,0.1-0.3,0.3v7.2c0,0.2,0.1,0.3,0.3,0.3h7.2c0.2,0,0.3-0.1,0.3-0.3v-7.2
		C32.7,57.4,32.6,57.3,32.4,57.3z"/>
	<path class="st0" d="M43.8,15.4h32c0.5,0,0.9-0.4,0.9-0.9v-3.9c0-0.5-0.4-1-0.9-1h-32c-0.5,0-1,0.4-1,1v3.9
		C42.9,14.9,43.3,15.4,43.8,15.4z M44.8,11.5h30.1v2H44.8V11.5z"/>
	<path class="st0" d="M43.8,22.2h32c0.5,0,0.9-0.4,0.9-1v-3.9c0-0.5-0.4-0.9-0.9-0.9h-32c-0.5,0-1,0.4-1,0.9v3.9
		C42.9,21.8,43.3,22.2,43.8,22.2z M44.8,18.3h30.1v2H44.8V18.3z"/>
	<path class="st0" d="M73.8,58.3H62.6c-0.5,0-0.9,0.4-0.9,1v3.9c0,0.5,0.4,1,0.9,1h11.2c0.5,0,1-0.4,1-1v-3.9
		C74.7,58.7,74.3,58.3,73.8,58.3z M72.8,62.1h-9.3v-2h9.3V62.1z"/>
	<path class="st0" d="M76.4,59.2v3.9c0,0.5,0.4,1,1,1h11.2c0.5,0,0.9-0.4,0.9-1v-3.9c0-0.5-0.4-1-0.9-1H77.4
		C76.8,58.3,76.4,58.7,76.4,59.2z M78.3,60.2h9.3v2h-9.3V60.2z"/>
	<path class="st0" d="M22,25.2h13.7c0.5,0,0.9-0.4,0.9-0.9V10.5c0-0.5-0.4-1-0.9-1H22c-0.5,0-0.9,0.4-0.9,1v13.7
		C21,24.7,21.4,25.2,22,25.2z"/>
	<circle class="st0" cx="28.8" cy="30.2" r="1.5"/>
</g>
</svg>
