<?xml version="1.0" encoding="utf-8"?>
<!-- Generator: Adobe Illustrator 21.0.0, SVG Export Plug-In . SVG Version: 6.00 Build 0)  -->
<svg version="1.1" id="Layer_1" xmlns="http://www.w3.org/2000/svg" xmlns:xlink="http://www.w3.org/1999/xlink" x="0px" y="0px"
	 viewBox="0 0 107 76" style="enable-background:new 0 0 107 76;" xml:space="preserve">
<style type="text/css">
	.st0{fill:#FFFFFF;}
</style>
<g>
	<path class="st0" d="M42.7,63.6c-3.4,0-6.2,2.8-6.2,6.2c0,3.4,2.8,6.2,6.2,6.2c3.4,0,6.2-2.8,6.2-6.2
		C48.9,66.4,46.1,63.6,42.7,63.6z M42.7,71.1c-0.7,0-1.3-0.6-1.3-1.3c0-0.7,0.6-1.3,1.3-1.3c0.7,0,1.3,0.6,1.3,1.3
		C44,70.5,43.4,71.1,42.7,71.1z"/>
	<path class="st0" d="M79.6,63.6c-3.4,0-6.2,2.8-6.2,6.2c0,3.4,2.8,6.2,6.2,6.2c3.4,0,6.2-2.8,6.2-6.2C85.8,66.4,83,63.6,79.6,63.6z
		 M79.6,71.1c-0.7,0-1.3-0.6-1.3-1.3c0-0.7,0.6-1.3,1.3-1.3c0.7,0,1.3,0.6,1.3,1.3C80.9,70.5,80.3,71.1,79.6,71.1z"/>
	<path class="st0" d="M44.1,47.1h39.1c1.6,0,3-1,3.6-2.5l11-28.5c0.5-1.2,0.3-2.5-0.4-3.6c-0.7-1.1-1.9-1.7-3.2-1.7H48.5
		c-2.1,0-3.9,1.7-3.9,3.9s1.7,3.9,3.9,3.9h32l-3.6,9.3H58.6c-0.7,0-1.3,0.6-1.3,1.3s0.6,1.3,1.3,1.3h17.2l-3.4,8.8H45.6L31.3,2.5
		C30.7,1,29.2,0,27.7,0H12.8c-2.1,0-3.9,1.7-3.9,3.9s1.7,3.9,3.9,3.9H25l14.4,36.9c0,0.1,0.1,0.1,0.1,0.1l-3.6,8
		c-0.8,1.8-0.7,4,0.4,5.7c1.1,1.7,3,2.7,5,2.7h45.3c1.4,0,2.6-1.2,2.6-2.6S87.9,56,86.5,56H41.3c-0.4,0-0.6-0.2-0.7-0.4
		c-0.1-0.1-0.2-0.4-0.1-0.7L44.1,47.1z M83.2,18.6h5.4L85,27.9h-5.4L83.2,18.6z M78.6,30.5H84l-3.4,8.8h-5.4L78.6,30.5z"/>
</g>
</svg>
