<svg id="Layer_1" data-name="Layer 1" xmlns="http://www.w3.org/2000/svg" viewBox="0 0 408.1 126.36"><defs><style>.cls-1{fill:#005697;}.cls-2{fill:#e32726;}.cls-3{fill:#00aae9;}</style></defs><title>Artboard 1</title><path class="cls-1" d="M170.07,78.69a14.94,14.94,0,0,1-15,15h-1.3a14.94,14.94,0,0,1-15-15v-31a14.94,14.94,0,0,1,15-15h1.3a14.8,14.8,0,0,1,15,15V53a.86.86,0,0,1-1,1h-7.45a.86.86,0,0,1-1-1V47.67a5.53,5.53,0,0,0-5.59-5.59h-1.3a5.53,5.53,0,0,0-5.59,5.59v31a5.67,5.67,0,0,0,5.59,5.59h1.3a5.54,5.54,0,0,0,5.59-5.59V73.35q0-1.05,1-1.05h7.45q1,0,1,1.05Z"/><path class="cls-1" d="M206,34.13c0,.05-1.66,5-5.16,14.32L195,66a1.83,1.83,0,0,0-.13.81V92.14a.86.86,0,0,1-1,1h-7.45a.86.86,0,0,1-1-1V66.85a4.52,4.52,0,0,0-.16-.89c-.48-1.24-2.44-8.4-5.86-17.59l-5.15-14.24a.64.64,0,0,1,.64-.89h8a1.32,1.32,0,0,1,1.38.89l5.36,16.43c.1.17.22.34.44.34a.48.48,0,0,0,.43-.34L196,34.13a1.25,1.25,0,0,1,1.29-.89h8A.64.64,0,0,1,206,34.13Z"/><path class="cls-1" d="M243.34,55.89a14.94,14.94,0,0,1-15,15h-5.91a.86.86,0,0,0-1,1V92.14a.86.86,0,0,1-1,1H213a.86.86,0,0,1-1-1v-58a.86.86,0,0,1,1-1h15.31a14.8,14.8,0,0,1,15,15Zm-9.4,0V48.15a5.54,5.54,0,0,0-5.59-5.59h-5.91q-1,0-1,1.05V60.43q0,1.05,1,1.05h5.91a5.53,5.53,0,0,0,5.59-5.59Z"/><path class="cls-1" d="M282.11,92.14c.17.66-.17,1-.65,1H274a1.21,1.21,0,0,1-1.19-1l-6-22.34a1.28,1.28,0,0,0-1.31-1h-4.09c-.71,0-1.06.33-1.06,1V92.14a.86.86,0,0,1-1,1h-7.45a.86.86,0,0,1-1-1V34.07a.87.87,0,0,1,1-.91h15.31a14.38,14.38,0,0,1,10.61,4.41,14.59,14.59,0,0,1,4.37,10.65v6.35q0,6.72-5.91,11.83a1.19,1.19,0,0,0-.57,1.13c0,.32,1,4.67,3.08,11.64Zm-9.19-37.58V48a5.55,5.55,0,0,0-5.59-5.61h-6q-1.05,0-1.05,1v15.8a.93.93,0,0,0,1.05,1.06h6a5.54,5.54,0,0,0,5.59-5.61Z"/><path class="cls-1" d="M319.81,92.14a.86.86,0,0,1-1,1H291a.86.86,0,0,1-1-1V34.22a.86.86,0,0,1,1-1h27.87a.86.86,0,0,1,1,1v7.45a.86.86,0,0,1-1,1H300.45q-1.05,0-1.05,1V57.54q0,1,1.05,1h14.5c.65,0,1,.35,1,1v7.31q0,1-1,1h-14.5q-1.05,0-1.05,1V82.74q0,1,1.05,1h18.39a.86.86,0,0,1,1,1Z"/><path class="cls-1" d="M358.4,78.69a14.94,14.94,0,0,1-15,15h-1.3a14.94,14.94,0,0,1-15-15V74.56q0-1.05,1-1.05h7.45q1,0,1,1.05v4.13a5.67,5.67,0,0,0,5.59,5.59h1.3a5.38,5.38,0,0,0,4-1.63,5.45,5.45,0,0,0,1.62-4,7.67,7.67,0,0,0-2.44-6.12q-3.81-3.23-13.71-11.8a16.59,16.59,0,0,1-5.72-13.1,14.92,14.92,0,0,1,15-15h1.3a14.8,14.8,0,0,1,15,15V52q0,1.05-1,1.05H350q-1,0-1-1.05V47.67a5.53,5.53,0,0,0-5.59-5.59h-1.3a5.53,5.53,0,0,0-5.59,5.59,7.53,7.53,0,0,0,2.51,6l13.61,11.83A16.69,16.69,0,0,1,358.4,78.69Z"/><path class="cls-1" d="M397.23,78.69a14.94,14.94,0,0,1-15,15H381a14.94,14.94,0,0,1-15-15V74.56q0-1.05,1-1.05h7.45q1,0,1,1.05v4.13A5.67,5.67,0,0,0,381,84.28h1.3a5.38,5.38,0,0,0,4-1.63,5.45,5.45,0,0,0,1.62-4,7.67,7.67,0,0,0-2.44-6.12q-3.81-3.23-13.71-11.8A16.59,16.59,0,0,1,366,47.63a14.92,14.92,0,0,1,15-15h1.3a14.8,14.8,0,0,1,15,15V52q0,1.05-1,1.05h-7.45q-1,0-1-1.05V47.67a5.53,5.53,0,0,0-5.59-5.59H381a5.53,5.53,0,0,0-5.59,5.59,7.53,7.53,0,0,0,2.51,6l13.61,11.83A16.69,16.69,0,0,1,397.23,78.69Z"/><path class="cls-1" d="M398.36,34.87a3.59,3.59,0,0,1,.85-1.17,3.8,3.8,0,0,1,1.22-.75,4.13,4.13,0,0,1,2.91,0,3.81,3.81,0,0,1,1.22.75,3.59,3.59,0,0,1,.85,1.17,3.69,3.69,0,0,1-2.07,5,4.2,4.2,0,0,1-2.91,0,3.78,3.78,0,0,1-2.07-5Zm.93,2.72a2.92,2.92,0,0,0,.6.94,2.7,2.7,0,0,0,.89.61,2.78,2.78,0,0,0,1.11.22,2.75,2.75,0,0,0,1.09-.22,2.7,2.7,0,0,0,.9-.61,3,3,0,0,0,.6-.94,3,3,0,0,0,.23-1.18,3,3,0,0,0-.23-1.17,3,3,0,0,0-.6-.93,2.77,2.77,0,0,0-2-.83,2.79,2.79,0,0,0-1.11.22,2.74,2.74,0,0,0-.89.61,2.87,2.87,0,0,0-.6.93,3,3,0,0,0-.22,1.17A3.08,3.08,0,0,0,399.29,37.59ZM402,34.31a2.21,2.21,0,0,1,1.21.28,1.06,1.06,0,0,1,.43,1,1.29,1.29,0,0,1-.09.5.88.88,0,0,1-.23.33,1.07,1.07,0,0,1-.35.2,1.76,1.76,0,0,1-.43.09l1.12,1.83h-.87l-1-1.79h-.52V38.5h-.83V34.31Zm0,1.75a1.49,1.49,0,0,0,.59-.1q.23-.1.23-.48a.42.42,0,0,0-.08-.27.54.54,0,0,0-.21-.16,1,1,0,0,0-.28-.07l-.29,0h-.7v1.1Z"/><path class="cls-2" d="M139.41,116.68V102.53h9.32V105h-6.56v3.32h5.58v2.46h-5.58v3.44h6.56v2.46Z"/><path class="cls-2" d="M162.27,116.68v-8.24l-2.7,5.36H157.7L155,108.43v8.24h-2.76V102.53h2.72l3.7,7.65,3.67-7.65H165v14.15Z"/><path class="cls-2" d="M175,116.68h-5.92V102.53h5.68c2.76,0,4.37,1.55,4.37,4a3.27,3.27,0,0,1-1.75,2.92,3.29,3.29,0,0,1,1.95,3.18C179.34,115.25,177.53,116.68,175,116.68ZM174.55,105h-2.7v3.26h2.7a1.64,1.64,0,1,0,0-3.26Zm.18,5.74h-2.88v3.48h2.88a1.74,1.74,0,1,0,0-3.48Z"/><path class="cls-2" d="M182.9,116.68V102.53h9.32V105h-6.56v3.32h5.58v2.46h-5.58v3.44h6.56v2.46Z"/><path class="cls-2" d="M204.54,115.33a5.15,5.15,0,0,1-3.73,1.35H195.7V102.53h5.11a5.15,5.15,0,0,1,3.73,1.35c1.59,1.59,1.43,3.54,1.43,5.66S206.13,113.74,204.54,115.33Zm-1.93-9.46a2.46,2.46,0,0,0-2.07-.87h-2.09v9.22h2.09a2.47,2.47,0,0,0,2.07-.87c.52-.64.6-1.65.6-3.79S203.13,106.51,202.61,105.87Z"/><path class="cls-2" d="M218.41,115.33a5.15,5.15,0,0,1-3.74,1.35h-5.11V102.53h5.11a5.16,5.16,0,0,1,3.74,1.35c1.59,1.59,1.43,3.54,1.43,5.66S220,113.74,218.41,115.33Zm-1.93-9.46a2.46,2.46,0,0,0-2.07-.87h-2.09v9.22h2.09a2.47,2.47,0,0,0,2.07-.87c.52-.64.6-1.65.6-3.79S217,106.51,216.49,105.87Z"/><path class="cls-2" d="M223.45,116.68V102.53h9.32V105h-6.56v3.32h5.58v2.46h-5.58v3.44h6.56v2.46Z"/><path class="cls-2" d="M245.09,115.33a5.15,5.15,0,0,1-3.74,1.35h-5.11V102.53h5.11a5.16,5.16,0,0,1,3.74,1.35c1.59,1.59,1.43,3.54,1.43,5.66S246.68,113.74,245.09,115.33Zm-1.93-9.46a2.46,2.46,0,0,0-2.07-.87H239v9.22h2.09a2.47,2.47,0,0,0,2.07-.87c.52-.64.6-1.65.6-3.79S243.68,106.51,243.16,105.87Z"/><path class="cls-2" d="M255.79,116.68V102.53h2.76v14.15Z"/><path class="cls-2" d="M270.92,116.68l-5.6-8.68v8.68h-2.76V102.53H265l5.6,8.66v-8.66h2.76v14.15Z"/><path class="cls-2" d="M288.53,105v11.68h-2.76V105h-3.7v-2.46h10.15V105Z"/><path class="cls-2" d="M303.88,115.25a5.49,5.49,0,0,1-7.65,0c-1.43-1.43-1.39-3.2-1.39-5.64s0-4.21,1.39-5.64a5.49,5.49,0,0,1,7.65,0c1.43,1.43,1.41,3.2,1.41,5.64S305.31,113.82,303.88,115.25Zm-2-9.62a2.29,2.29,0,0,0-1.77-.75,2.34,2.34,0,0,0-1.79.75c-.54.6-.68,1.25-.68,4s.14,3.38.68,4a2.34,2.34,0,0,0,1.79.75,2.29,2.29,0,0,0,1.77-.75c.54-.6.7-1.25.7-4S302.37,106.23,301.84,105.63Z"/><path class="cls-2" d="M319,116.68v-8.24l-2.7,5.36H314.4l-2.72-5.36v8.24h-2.76V102.53h2.72l3.7,7.65,3.67-7.65h2.72v14.15Z"/><path class="cls-2" d="M334.42,115.25a5.49,5.49,0,0,1-7.65,0c-1.43-1.43-1.39-3.2-1.39-5.64s0-4.21,1.39-5.64a5.49,5.49,0,0,1,7.65,0c1.43,1.43,1.41,3.2,1.41,5.64S335.85,113.82,334.42,115.25Zm-2-9.62a2.29,2.29,0,0,0-1.77-.75,2.34,2.34,0,0,0-1.79.75c-.54.6-.68,1.25-.68,4s.14,3.38.68,4a2.34,2.34,0,0,0,1.79.75,2.29,2.29,0,0,0,1.77-.75c.54-.6.7-1.25.7-4S332.91,106.23,332.37,105.63Z"/><path class="cls-2" d="M347,116.68,344.2,111h-2v5.64h-2.76V102.53H345a4.28,4.28,0,0,1,4.59,4.33,3.81,3.81,0,0,1-2.58,3.72l3.16,6.1ZM344.82,105h-2.6v3.73h2.6a1.87,1.87,0,1,0,0-3.73Z"/><path class="cls-2" d="M360.81,116.68,358.05,111h-2v5.64H353.3V102.53h5.54a4.28,4.28,0,0,1,4.59,4.33,3.81,3.81,0,0,1-2.58,3.72l3.16,6.1ZM358.67,105h-2.6v3.73h2.6a1.87,1.87,0,1,0,0-3.73Z"/><path class="cls-2" d="M375.65,115.25a5.49,5.49,0,0,1-7.65,0c-1.43-1.43-1.39-3.2-1.39-5.64s0-4.21,1.39-5.64a5.49,5.49,0,0,1,7.65,0c1.43,1.43,1.41,3.2,1.41,5.64S377.08,113.82,375.65,115.25Zm-2-9.62a2.29,2.29,0,0,0-1.77-.75,2.34,2.34,0,0,0-1.79.75c-.54.6-.68,1.25-.68,4s.14,3.38.68,4a2.34,2.34,0,0,0,1.79.75,2.29,2.29,0,0,0,1.77-.75c.54-.6.7-1.25.7-4S374.14,106.23,373.6,105.63Z"/><path class="cls-2" d="M392.76,116.68h-2.3l-2.6-8.58-2.6,8.58h-2.3l-3.77-14.15H382l2.19,8.92,2.58-8.92h2.07l2.58,8.92,2.21-8.92h2.88Z"/><path class="cls-2" d="M402.7,102.79h-1.26v3.47h-.8v-3.47h-1.26v-.65h3.32Zm3.13,2.27,1.12-2.92h1.15v4.12h-.75V103h0l-1.23,3.22h-.56L404.31,103h0v3.22h-.75v-4.12h1.16Z"/><path class="cls-3" d="M63.18,126.36a63,63,0,0,0,45.39-19.26H17.79A63,63,0,0,0,63.18,126.36Z"/><path class="cls-1" d="M81.15,83.3h-2.6L68.16,97.38h48.13a62.79,62.79,0,0,0,9.85-29.16H92.25Z"/><path class="cls-1" d="M10.29,42.3H26V39.06H17.46V35.82H31.78V32.58h7.58V29.34H58.94v3.24H77.45v3.24H74.06v3.24h40.18V42.3h8.57A63.18,63.18,0,0,0,2.51,45.54h7.78Z"/><path class="cls-1" d="M42.14,100.62H52.35V97.38h5.74L73.66,76.29,63.79,65H54.55V61.74H63V58.5H49.3v3.24H29.42V58.5H24.9V55.26H13.59V52H1a63,63,0,0,0,13.85,51.84H42.14Z"/><path class="cls-1" d="M117.76,52h2.51v3.24h-4V58.5H105.42v3.24h-6V65h10.77V61.74h16.15a63.25,63.25,0,0,0-1.63-13h-6.94Z"/><polygon class="cls-1" points="78.31 74.22 78.92 74.22 85.89 64.98 70.25 64.98 78.31 74.22"/></svg>