<?xml version="1.0" encoding="utf-8"?>
<!-- Generator: Adobe Illustrator 21.0.0, SVG Export Plug-In . SVG Version: 6.00 Build 0)  -->
<svg version="1.1" id="Layer_1" xmlns="http://www.w3.org/2000/svg" xmlns:xlink="http://www.w3.org/1999/xlink" x="0px" y="0px"
	 viewBox="0 0 14 14" style="enable-background:new 0 0 14 14;" xml:space="preserve">
<style type="text/css">
	.st0{fill:#4B4B4B;}
</style>
<g id="Layer_2">
</g>
<g id="Layer_1_1_">
	<g>
		<path class="st0" d="M5.6,8.2H10l0,0l0,0h1.8c0.2,0,0.3-0.1,0.4-0.3L14,3.3c0-0.1,0-0.3,0-0.4s-0.2-0.2-0.3-0.2h-1.8l0,0H6.2
			C6,2.7,5.8,2.9,5.8,3.1S6,3.6,6.2,3.6h5l-0.6,1.5H7.8c-0.2,0-0.4,0.2-0.4,0.4s0.2,0.4,0.4,0.4h2.5L9.8,7.3H5.6L3.2,1.2
			C3.2,1.1,3,1,2.8,1H0.4C0.2,1,0,1.2,0,1.4s0.2,0.4,0.4,0.4h2.1l2.3,5.9L4.1,9.3C4,9.6,4,9.9,4.2,10.2s0.5,0.4,0.8,0.4h7.3
			c0.2,0,0.4-0.2,0.4-0.4s-0.2-0.4-0.4-0.4H5c-0.1,0-0.1,0-0.1-0.1V9.6L5.6,8.2z M12.1,3.6H13l-0.6,1.5h-0.9L12.1,3.6z M11.2,5.9
			h0.9l-0.6,1.4h-0.9L11.2,5.9z"/>
		<path class="st0" d="M11.2,11c-0.6,0-1,0.4-1,1s0.4,1,1,1s1-0.4,1-1C12.2,11.5,11.8,11,11.2,11z M11.2,12.5
			c-0.2,0-0.4-0.2-0.4-0.4s0.2-0.4,0.4-0.4s0.4,0.2,0.4,0.4C11.7,12.3,11.5,12.5,11.2,12.5z"/>
		<path class="st0" d="M5.3,11c-0.6,0-1,0.4-1,1s0.4,1,1,1s1-0.4,1-1C6.3,11.5,5.8,11,5.3,11z M5.3,12.5c-0.2,0-0.4-0.2-0.4-0.4
			s0.2-0.4,0.4-0.4c0.2,0,0.4,0.2,0.4,0.4C5.7,12.3,5.5,12.5,5.3,12.5z"/>
	</g>
</g>
</svg>
