<?xml version="1.0" encoding="utf-8"?>
<!-- Generator: Adobe Illustrator 21.0.0, SVG Export Plug-In . SVG Version: 6.00 Build 0)  -->
<svg version="1.1" id="Layer_1" xmlns="http://www.w3.org/2000/svg" xmlns:xlink="http://www.w3.org/1999/xlink" x="0px" y="0px"
	 viewBox="0 0 14 14" style="enable-background:new 0 0 14 14;" xml:space="preserve">
<style type="text/css">
	.st0{fill:#4B4B4B;}
</style>
<g id="Layer_2">
</g>
<g id="Layer_1_1_">
	<g>
		<g>
			<path class="st0" d="M7,6.5C5.2,6.5,3.7,5,3.7,3.2C3.7,1.5,5.2,0,7,0s3.3,1.5,3.3,3.3S8.8,6.5,7,6.5z M7,0.9
				c-1.3,0-2.3,1-2.3,2.3s1,2.3,2.3,2.3s2.3-1,2.3-2.3C9.3,2,8.3,0.9,7,0.9z"/>
		</g>
		<g>
			<path class="st0" d="M6.4,14c-1.7,0-3.2,0-3.9-0.8c-0.4-0.4-0.6-0.9-0.6-1.5c0-2.8,2.3-5.1,5.1-5.1s5.1,2.3,5.1,5.1
				C12.1,14,9.6,14,7,14H6.7C6.6,14,6.5,14,6.4,14z M7,7.5c-2.3,0-4.2,1.9-4.2,4.2c0,0.4,0.1,0.7,0.3,0.8c0.6,0.6,2,0.6,3.6,0.6H7
				c2.9,0,4.2-0.1,4.2-1.4C11.2,9.4,9.3,7.5,7,7.5z"/>
		</g>
	</g>
</g>
</svg>
