<?xml version="1.0" encoding="utf-8"?>
<!-- Generator: Adobe Illustrator 21.0.0, SVG Export Plug-In . SVG Version: 6.00 Build 0)  -->
<svg version="1.1" id="Layer_1" xmlns="http://www.w3.org/2000/svg" xmlns:xlink="http://www.w3.org/1999/xlink" x="0px" y="0px"
	 viewBox="0 0 14 14" style="enable-background:new 0 0 14 14;" xml:space="preserve">
<style type="text/css">
	.st0{fill:#4B4B4B;}
</style>
<path class="st0" d="M13.3,12.9L9.9,9.2c0.9-1,1.5-2.3,1.5-3.8C11.4,2.4,9,0,6,0S0.6,2.4,0.6,5.4c0,3,2.4,5.4,5.4,5.4
	c1.1,0,2.1-0.3,2.9-0.9l3.4,3.8c0.1,0.1,0.3,0.2,0.5,0.2c0.1,0,0.3-0.1,0.4-0.2C13.5,13.6,13.5,13.2,13.3,12.9z M8.1,9
	C7.5,9.4,6.8,9.6,6,9.6c-2.3,0-4.2-1.9-4.2-4.2S3.7,1.3,6,1.3s4.2,1.9,4.2,4.2v0v0c0,0,0,0,0,0c0,1.1-0.4,2-1.1,2.8
	C8.8,8.5,8.4,8.8,8.1,9z"/>
<g id="Layer_2">
</g>
</svg>
