<?xml version="1.0" encoding="UTF-8" standalone="no"?>
<svg width="35px" height="34px" viewBox="0 0 35 34" version="1.1" xmlns="http://www.w3.org/2000/svg" xmlns:xlink="http://www.w3.org/1999/xlink">
    <!-- Generator: Sketch 3.7.2 (28276) - http://www.bohemiancoding.com/sketch -->
    <title>Logo-2C-Black-0p25in-R</title>
    <desc>Created with Sketch.</desc>
    <defs></defs>
    <g id="Mobile" stroke="none" stroke-width="1" fill="none" fill-rule="evenodd">
        <g id="iPhone-SE-Copy-37" transform="translate(-119.000000, -278.000000)" fill="#1A1918">
            <g id="Logo-2C-Black-0p25in-R" transform="translate(119.000000, 278.000000)">
                <g id="Group-9">
                    <path d="M29.3447109,28.9717778 L24.2792605,28.9717778 L24.2792605,21.08 C24.2792605,19.1986667 24.2469964,16.779 21.6449985,16.779 C19.0107365,16.779 18.6064874,18.8303333 18.6064874,20.9458889 L18.6064874,28.9717778 L13.5467306,28.9717778 L13.5467306,12.7462222 L18.401516,12.7462222 L18.401516,14.9637778 L18.4717377,14.9637778 C19.149282,13.6887778 20.8004404,12.3438889 23.2657908,12.3438889 C28.3976671,12.3438889 29.3447109,15.7023333 29.3447109,20.0732222 L29.3447109,28.9717778 L29.3447109,28.9717778 Z M7.834102,10.5305556 C6.20761605,10.5305556 4.89238295,9.21966667 4.89238295,7.60466667 C4.89238295,5.99155556 6.20761605,4.68066667 7.834102,4.68066667 C9.45489431,4.68066667 10.7701274,5.99155556 10.7701274,7.60466667 C10.7701274,9.21966667 9.45489431,10.5305556 7.834102,10.5305556 L7.834102,10.5305556 Z M5.2947342,28.9717778 L10.3677762,28.9717778 L10.3677762,12.7462222 L5.2947342,12.7462222 L5.2947342,28.9717778 Z M31.8669977,0 L2.75346852,0 C1.36421797,0 0.233079545,1.09744444 0.233079545,2.45177778 L0.233079545,31.5463333 C0.233079545,32.9006667 1.36421797,34 2.75346852,34 L31.8669977,34 C33.2619419,34 34.3930803,32.9006667 34.3930803,31.5463333 L34.3930803,2.45177778 C34.3930803,1.09744444 33.2619419,0 31.8669977,0 L31.8669977,0 Z" id="Fill-8"></path>
                </g>
            </g>
        </g>
    </g>
</svg>